<svg xmlns="http://www.w3.org/2000/svg" viewBox="0 0 189.68 158.46"><defs><style>.cls-1,.cls-2{fill:#9ebe43;}.cls-1{stroke:#fff;stroke-miterlimit:10;stroke-width:10px;}</style></defs><g id="Capa_2" data-name="Capa 2"><g id="Capa_1-2" data-name="Capa 1"><path class="cls-1" d="M94.83,124.69a50,50,0,0,1-18.37-3.64,3,3,0,0,0-2.92.25c-3.6,2.08-7.25,4.07-10.89,6.08-1.55.87-3.17,1.53-4.82.34s-1.87-3-1.49-4.81c.8-3.88,1.59-7.76,2.54-11.6a3.07,3.07,0,0,0-.8-3.17C38.27,85.83,43.35,50.07,68.74,34.31c27.88-17.31,66.63-3.5,74,31.32a48.5,48.5,0,0,1-40,58.35C100.11,124.39,97.46,124.46,94.83,124.69Zm24.83-39.78a9.18,9.18,0,1,0-9.21-9.15A9.2,9.2,0,0,0,119.66,84.91ZM70,84.91a9.18,9.18,0,1,0-9.22-9.13A9.18,9.18,0,0,0,70,84.91Zm34-9.11a9.17,9.17,0,1,0-9.23,9.11A9.09,9.09,0,0,0,104,75.8Z"/><path class="cls-1" d="M111.54,144.49c0,.78,0,1.44,0,2.09a6.91,6.91,0,0,1-6.85,6.83q-9.81.1-19.62,0a6.9,6.9,0,0,1-6.9-7q-.06-2,0-4a6.89,6.89,0,0,1,6.92-6.94c3.64-.07,7.27,0,10.9,0,14.3.06,26.72-5,37.6-14a54.11,54.11,0,0,0,16.49-22.67c1.49-3.94,1.88-8.32,2.62-12.53s1.38-8.2,1.84-12.33c.57-5.08-.53-10-2.06-14.81-7.69-24-24-38.6-48.89-42.78C70.85,10.9,39.34,35.12,35.29,68.17c-.59,4.73.46,9.2,1.08,13.75,1.14,8.23,2.5,16.44,3.69,24.67.71,4.87-.77,7.26-5.51,8.55A32.15,32.15,0,0,1,26,116.57c-6.33,0-10.83-3.72-14-8.72-8-12.45-9.09-25.75-3.32-39.3a20.71,20.71,0,0,1,15-12.41A32.5,32.5,0,0,1,27,55.76c.15-.37.35-.83.52-1.31C37.35,26.55,56.88,10,86.12,5.7,119.28.87,151.46,21.62,162,53.8c.32,1,.27,2.17,2,2.24,9.15.41,14.73,5.77,17.71,13.85,5.11,13.85,3.85,27.15-4.91,39.3-3,4.2-7.11,7.33-12.5,7.46-3,.07-6-.89-8.91-1.53a2,2,0,0,0-2.48.85,70.1,70.1,0,0,1-40,28.07C112.49,144.14,112.12,144.29,111.54,144.49Z"/><path class="cls-2" d="M94.83,124.69a50,50,0,0,1-18.37-3.64,3,3,0,0,0-2.92.25c-3.6,2.08-7.25,4.07-10.89,6.08-1.55.87-3.17,1.53-4.82.34s-1.87-3-1.49-4.81c.8-3.88,1.59-7.76,2.54-11.6a3.07,3.07,0,0,0-.8-3.17C38.27,85.83,43.35,50.07,68.74,34.31c27.88-17.31,66.63-3.5,74,31.32a48.5,48.5,0,0,1-40,58.35C100.11,124.39,97.46,124.46,94.83,124.69Zm24.83-39.78a9.18,9.18,0,1,0-9.21-9.15A9.2,9.2,0,0,0,119.66,84.91ZM70,84.91a9.18,9.18,0,1,0-9.22-9.13A9.18,9.18,0,0,0,70,84.91Zm34-9.11a9.17,9.17,0,1,0-9.23,9.11A9.09,9.09,0,0,0,104,75.8Z"/><path class="cls-2" d="M111.54,144.49c0,.78,0,1.44,0,2.09a6.91,6.91,0,0,1-6.85,6.83q-9.81.1-19.62,0a6.9,6.9,0,0,1-6.9-7q-.06-2,0-4a6.89,6.89,0,0,1,6.92-6.94c3.64-.07,7.27,0,10.9,0,14.3.06,26.72-5,37.6-14a54.11,54.11,0,0,0,16.49-22.67c1.49-3.94,1.88-8.32,2.62-12.53s1.38-8.2,1.84-12.33c.57-5.08-.53-10-2.06-14.81-7.69-24-24-38.6-48.89-42.78C70.85,10.9,39.34,35.12,35.29,68.17c-.59,4.73.46,9.2,1.08,13.75,1.14,8.23,2.5,16.44,3.69,24.67.71,4.87-.77,7.26-5.51,8.55A32.15,32.15,0,0,1,26,116.57c-6.33,0-10.83-3.72-14-8.72-8-12.45-9.09-25.75-3.32-39.3a20.71,20.71,0,0,1,15-12.41A32.5,32.5,0,0,1,27,55.76c.15-.37.35-.83.52-1.31C37.35,26.55,56.88,10,86.12,5.7,119.28.87,151.46,21.62,162,53.8c.32,1,.27,2.17,2,2.24,9.15.41,14.73,5.77,17.71,13.85,5.11,13.85,3.85,27.15-4.91,39.3-3,4.2-7.11,7.33-12.5,7.46-3,.07-6-.89-8.91-1.53a2,2,0,0,0-2.48.85,70.1,70.1,0,0,1-40,28.07C112.49,144.14,112.12,144.29,111.54,144.49Z"/></g></g></svg>