<svg xmlns="http://www.w3.org/2000/svg" viewBox="0 0 116.96 159.69"><defs><style>.cls-1,.cls-2{fill:#9ebe43;}.cls-1{stroke:#fff;stroke-miterlimit:10;stroke-width:10px;}</style></defs><g id="Capa_2" data-name="Capa 2"><g id="Capa_1-2" data-name="Capa 1"><path class="cls-1" d="M95.15,58.47H90.59c0-6.95.06-13.62,0-20.3a44.11,44.11,0,0,0-.68-7.53C87.14,15.93,73.76,5,58.55,5S29.81,15.9,27.07,30.67a45.27,45.27,0,0,0-.68,7.54c-.09,6.67,0,13.34,0,20.26H21.77C11.82,58.52,5,65.34,5,75.31q0,31.25,0,62.5c0,10,6.81,16.85,16.73,16.86q36.75,0,73.51,0c9.83,0,16.69-6.9,16.7-16.72q0-31.33,0-62.68C111.94,65.32,105.11,58.51,95.15,58.47ZM78.22,34.37a21.09,21.09,0,0,1,.16,3v.18q0,9.47,0,18.94c0,.13,0,.27,0,.4H38.59c0-.13,0-.27,0-.4V52.38c0-5,0-10,0-15,0-11.09,7.82-19.41,18.93-20.24C67.51,16.42,76.62,24,78.22,34.37ZM65.35,109.26a3.47,3.47,0,0,0-1.54,3.29,35.71,35.71,0,0,1,0,4.51,5.36,5.36,0,1,1-10.71,0c0-.9,0-1.8,0-2.71a8.83,8.83,0,0,1,0-1.26A4.12,4.12,0,0,0,51.35,109a10.41,10.41,0,0,1-.47-15.25A10.65,10.65,0,0,1,66.33,94,10.49,10.49,0,0,1,65.35,109.26Z"/><path class="cls-2" d="M95.15,58.47H90.59c0-6.95.06-13.62,0-20.3a44.11,44.11,0,0,0-.68-7.53C87.14,15.93,73.76,5,58.55,5S29.81,15.9,27.07,30.67a45.27,45.27,0,0,0-.68,7.54c-.09,6.67,0,13.34,0,20.26H21.77C11.82,58.52,5,65.34,5,75.31q0,31.25,0,62.5c0,10,6.81,16.85,16.73,16.86q36.75,0,73.51,0c9.83,0,16.69-6.9,16.7-16.72q0-31.33,0-62.68C111.94,65.32,105.11,58.51,95.15,58.47ZM78.22,34.37a21.09,21.09,0,0,1,.16,3v.18q0,9.47,0,18.94c0,.13,0,.27,0,.4H38.59c0-.13,0-.27,0-.4V52.38c0-5,0-10,0-15,0-11.09,7.82-19.41,18.93-20.24C67.51,16.42,76.62,24,78.22,34.37ZM65.35,109.26a3.47,3.47,0,0,0-1.54,3.29,35.71,35.71,0,0,1,0,4.51,5.36,5.36,0,1,1-10.71,0c0-.9,0-1.8,0-2.71a8.83,8.83,0,0,1,0-1.26A4.12,4.12,0,0,0,51.35,109a10.41,10.41,0,0,1-.47-15.25A10.65,10.65,0,0,1,66.33,94,10.49,10.49,0,0,1,65.35,109.26Z"/></g></g></svg>