<svg xmlns="http://www.w3.org/2000/svg" viewBox="0 0 148.76 158.4"><defs><style>.cls-1,.cls-2{fill:#9ebe43;}.cls-1{stroke:#fff;stroke-miterlimit:10;stroke-width:10px;}</style></defs><g id="Capa_2" data-name="Capa 2"><g id="Capa_1-2" data-name="Capa 1"><path class="cls-1" d="M62.43,153.4H11.6c-4.54,0-6.6-2.06-6.6-6.6V71c0-4.44,2.07-6.5,6.53-6.51,10.59,0,21.19,0,31.78,0a6.53,6.53,0,0,1,6.48,3.84c2.64,5.16,5.5,10.22,8.14,15.38a6.37,6.37,0,0,0,6.33,3.76c16.24-.06,32.49,0,48.73,0,4.78,0,6.78,2,6.78,6.74q0,26.31,0,52.61c0,4.66-2,6.68-6.68,6.68Zm17.09-15H96.6c1.45,0,2.91,0,4.35,0a3.85,3.85,0,0,0,3.81-4,3.89,3.89,0,0,0-3.82-4c-.48,0-1,0-1.45,0H59.84c-.53,0-1.07,0-1.61,0a3.89,3.89,0,0,0-3.61,4.45c.23,2.18,1.85,3.5,4.43,3.51C65.87,138.42,72.7,138.4,79.52,138.4Zm9.31-23.14c-3.82,0-7.64,0-11.46,0a6.41,6.41,0,0,0-2.35.39,3.87,3.87,0,0,0-2.23,4.38c.38,2,2,3.2,4.42,3.21q11.54,0,23.08,0c2.78,0,4.47-1.59,4.47-4s-1.69-4-4.47-4C96.47,115.25,92.65,115.26,88.83,115.26Z"/><path class="cls-1" d="M130.81,53.43H103.67c-5.47,0-8.35-2.9-8.35-8.37V17.92H34.74V56.44H22.08c0-.55-.09-1.12-.09-1.68q0-20.82,0-41.63C22,8,25,5,30.12,5Q65,5,99.82,5a8.81,8.81,0,0,1,6.62,2.75Q123.63,25,140.9,42.2a9.18,9.18,0,0,1,2.86,6.91q0,44.13,0,88.26c0,5.09-3,8.15-8.1,8.2-2.57,0-5.14,0-7.84,0V132.83h3Z"/><path class="cls-1" d="M56.19,64.45h2.08c10.91,0,21.82,0,32.73,0a6.29,6.29,0,0,1,6.32,3.77c1.7,3.41,3.58,6.73,5.37,10.09.25.46.45.94.77,1.61h-1.75c-11.88,0-23.76,0-35.64,0a2.35,2.35,0,0,1-2.45-1.5C61.27,73.85,58.8,69.33,56.19,64.45Z"/><path class="cls-2" d="M62.43,153.4H11.6c-4.54,0-6.6-2.06-6.6-6.6V71c0-4.44,2.07-6.5,6.53-6.51,10.59,0,21.19,0,31.78,0a6.53,6.53,0,0,1,6.48,3.84c2.64,5.16,5.5,10.22,8.14,15.38a6.37,6.37,0,0,0,6.33,3.76c16.24-.06,32.49,0,48.73,0,4.78,0,6.78,2,6.78,6.74q0,26.31,0,52.61c0,4.66-2,6.68-6.68,6.68Zm17.09-15H96.6c1.45,0,2.91,0,4.35,0a3.85,3.85,0,0,0,3.81-4,3.89,3.89,0,0,0-3.82-4c-.48,0-1,0-1.45,0H59.84c-.53,0-1.07,0-1.61,0a3.89,3.89,0,0,0-3.61,4.45c.23,2.18,1.85,3.5,4.43,3.51C65.87,138.42,72.7,138.4,79.52,138.4Zm9.31-23.14c-3.82,0-7.64,0-11.46,0a6.41,6.41,0,0,0-2.35.39,3.87,3.87,0,0,0-2.23,4.38c.38,2,2,3.2,4.42,3.21q11.54,0,23.08,0c2.78,0,4.47-1.59,4.47-4s-1.69-4-4.47-4C96.47,115.25,92.65,115.26,88.83,115.26Z"/><path class="cls-2" d="M130.81,53.43H103.67c-5.47,0-8.35-2.9-8.35-8.37V17.92H34.74V56.44H22.08c0-.55-.09-1.12-.09-1.68q0-20.82,0-41.63C22,8,25,5,30.12,5Q65,5,99.82,5a8.81,8.81,0,0,1,6.62,2.75Q123.63,25,140.9,42.2a9.18,9.18,0,0,1,2.86,6.91q0,44.13,0,88.26c0,5.09-3,8.15-8.1,8.2-2.57,0-5.14,0-7.84,0V132.83h3Z"/><path class="cls-2" d="M56.19,64.45h2.08c10.91,0,21.82,0,32.73,0a6.29,6.29,0,0,1,6.32,3.77c1.7,3.41,3.58,6.73,5.37,10.09.25.46.45.94.77,1.61h-1.75c-11.88,0-23.76,0-35.64,0a2.35,2.35,0,0,1-2.45-1.5C61.27,73.85,58.8,69.33,56.19,64.45Z"/></g></g></svg>