<svg xmlns="http://www.w3.org/2000/svg" viewBox="0 0 117.82 153.82"><defs><style>.cls-1,.cls-3{fill:#9ebe43;}.cls-1{stroke:#fff;stroke-miterlimit:10;stroke-width:9px;}.cls-2{fill:#fff;}</style></defs><g id="Capa_2" data-name="Capa 2"><g id="Capa_1-2" data-name="Capa 1"><path class="cls-1" d="M4.5,60.09C4.52,32.15,24,9.41,50.6,5.16c29.2-4.65,57.25,15.63,62,44.78,2,12.52-.2,24.48-4.74,36.11-5.45,14-13.69,26.28-23.22,37.77A205.42,205.42,0,0,1,60,148.75c-.72.62-1.21.84-2,.11-17.06-14.79-31.91-31.42-42.7-51.41C9.91,87.49,6.08,77,4.9,65.67,4.67,63.49,4.58,61.29,4.5,60.09Zm19.4-3.56A35,35,0,1,0,59,21.49,35,35,0,0,0,23.9,56.53Z"/><path class="cls-1" d="M63.62,37.59A17.29,17.29,0,0,1,68,39.29a15.81,15.81,0,0,1,3.37,2.48,11.92,11.92,0,0,1,2.21,2.88,6.65,6.65,0,0,1,.86,2.91,1.14,1.14,0,0,1-.35.83,1.06,1.06,0,0,1-.78.36H66.26a2.94,2.94,0,0,1-1.21-.22,3.89,3.89,0,0,1-.94-.65q-.16-.15-.51-.54a5.27,5.27,0,0,0-1-.78,6.84,6.84,0,0,0-1.62-.7,8.42,8.42,0,0,0-2.37-.29,13.83,13.83,0,0,0-2,.13,7.39,7.39,0,0,0-1.67.43,3.06,3.06,0,0,0-1.19.84,2,2,0,0,0-.46,1.34,1.86,1.86,0,0,0,.52,1.35,4.68,4.68,0,0,0,1.72,1,24.61,24.61,0,0,0,3.21.89l4.95,1a27.27,27.27,0,0,1,5.17,1.51,12.12,12.12,0,0,1,3.69,2.29A8.52,8.52,0,0,1,74.8,59.6,11.91,11.91,0,0,1,75.53,64a9.94,9.94,0,0,1-.86,4.15,10.58,10.58,0,0,1-2.43,3.34,13.2,13.2,0,0,1-3.77,2.42,19.55,19.55,0,0,1-4.85,1.4v3.83a1.39,1.39,0,0,1-.43,1,1.38,1.38,0,0,1-1,.43H55.11a1.47,1.47,0,0,1-1.45-1.45v-4A18.34,18.34,0,0,1,49,73.44a16.32,16.32,0,0,1-3.56-2.5,10.86,10.86,0,0,1-2.29-3,8.26,8.26,0,0,1-.86-3.32,1.14,1.14,0,0,1,.35-.83,1.06,1.06,0,0,1,.78-.35h7.06a3,3,0,0,1,1.19.19,3.4,3.4,0,0,1,.86.56c.14.14.36.38.64.7a7.16,7.16,0,0,0,1.16,1,7.43,7.43,0,0,0,1.83.89,8.6,8.6,0,0,0,2.72.37,15.42,15.42,0,0,0,4.77-.62c1.27-.41,1.91-1.15,1.91-2.23a1.63,1.63,0,0,0-.7-1.35,6.87,6.87,0,0,0-2.1-1A29.08,29.08,0,0,0,59.18,61C57.73,60.74,56,60.38,54,60q-5.55-1.19-8.11-4a10.48,10.48,0,0,1-2.56-7.41,9.61,9.61,0,0,1,.7-3.63,10.66,10.66,0,0,1,2-3.21,12.9,12.9,0,0,1,3.23-2.53,17.19,17.19,0,0,1,4.34-1.67v-4a1.47,1.47,0,0,1,1.45-1.45h7.06a1.38,1.38,0,0,1,1,.43,1.39,1.39,0,0,1,.43,1Z"/><rect class="cls-2" x="28.31" y="24.04" width="61.98" height="61.98" rx="16.33"/><path class="cls-3" d="M4.5,60.09C4.52,32.15,24,9.41,50.6,5.16c29.2-4.65,57.25,15.63,62,44.78,2,12.52-.2,24.48-4.74,36.11-5.45,14-13.69,26.28-23.22,37.77A205.42,205.42,0,0,1,60,148.75c-.72.62-1.21.84-2,.11-17.06-14.79-31.91-31.42-42.7-51.41C9.91,87.49,6.08,77,4.9,65.67,4.67,63.49,4.58,61.29,4.5,60.09Zm19.4-3.56A35,35,0,1,0,59,21.49,35,35,0,0,0,23.9,56.53Z"/><path class="cls-3" d="M63.62,37.59A17.29,17.29,0,0,1,68,39.29a15.81,15.81,0,0,1,3.37,2.48,11.92,11.92,0,0,1,2.21,2.88,6.65,6.65,0,0,1,.86,2.91,1.14,1.14,0,0,1-.35.83,1.06,1.06,0,0,1-.78.36H66.26a2.94,2.94,0,0,1-1.21-.22,3.89,3.89,0,0,1-.94-.65q-.16-.15-.51-.54a5.27,5.27,0,0,0-1-.78,6.84,6.84,0,0,0-1.62-.7,8.42,8.42,0,0,0-2.37-.29,13.83,13.83,0,0,0-2,.13,7.39,7.39,0,0,0-1.67.43,3.06,3.06,0,0,0-1.19.84,2,2,0,0,0-.46,1.34,1.86,1.86,0,0,0,.52,1.35,4.68,4.68,0,0,0,1.72,1,24.61,24.61,0,0,0,3.21.89l4.95,1a27.27,27.27,0,0,1,5.17,1.51,12.12,12.12,0,0,1,3.69,2.29A8.52,8.52,0,0,1,74.8,59.6,11.91,11.91,0,0,1,75.53,64a9.94,9.94,0,0,1-.86,4.15,10.58,10.58,0,0,1-2.43,3.34,13.2,13.2,0,0,1-3.77,2.42,19.55,19.55,0,0,1-4.85,1.4v3.83a1.39,1.39,0,0,1-.43,1,1.38,1.38,0,0,1-1,.43H55.11a1.47,1.47,0,0,1-1.45-1.45v-4A18.34,18.34,0,0,1,49,73.44a16.32,16.32,0,0,1-3.56-2.5,10.86,10.86,0,0,1-2.29-3,8.26,8.26,0,0,1-.86-3.32,1.14,1.14,0,0,1,.35-.83,1.06,1.06,0,0,1,.78-.35h7.06a3,3,0,0,1,1.19.19,3.4,3.4,0,0,1,.86.56c.14.14.36.38.64.7a7.16,7.16,0,0,0,1.16,1,7.43,7.43,0,0,0,1.83.89,8.6,8.6,0,0,0,2.72.37,15.42,15.42,0,0,0,4.77-.62c1.27-.41,1.91-1.15,1.91-2.23a1.63,1.63,0,0,0-.7-1.35,6.87,6.87,0,0,0-2.1-1A29.08,29.08,0,0,0,59.18,61C57.73,60.74,56,60.38,54,60q-5.55-1.19-8.11-4a10.48,10.48,0,0,1-2.56-7.41,9.61,9.61,0,0,1,.7-3.63,10.66,10.66,0,0,1,2-3.21,12.9,12.9,0,0,1,3.23-2.53,17.19,17.19,0,0,1,4.34-1.67v-4a1.47,1.47,0,0,1,1.45-1.45h7.06a1.38,1.38,0,0,1,1,.43,1.39,1.39,0,0,1,.43,1Z"/></g></g></svg>