<svg xmlns="http://www.w3.org/2000/svg" viewBox="0 0 173.49 157.82"><defs><style>.cls-1,.cls-2{fill:#9ebe43;}.cls-1{stroke:#fff;stroke-linecap:round;stroke-linejoin:round;stroke-width:10px;}</style></defs><g id="Capa_2" data-name="Capa 2"><g id="Capa_1-2" data-name="Capa 1"><path class="cls-1" d="M55.07,149.13c3.16-5.44,2.89-8.78-1-13.87,4.28-5.21,4.29-9.5,0-15,3.2-3.47,4.23-7.46,2.13-11.82s-5.8-6-11-5.67c6.78-5.29,10.79-11.7,11.82-19.76a28.38,28.38,0,0,0-6-21.67c-6.68-8.62-21.53-15.34-37.39-7,1.48-2.73,2.8-5.55,4.47-8.15q17.49-27.45,49.67-32.6a85,85,0,0,1,8.89-.7c2.78-.13,3.63.77,3.63,3.55q0,31.67,0,63.34a4.22,4.22,0,0,0,1.37,3.34q22.32,22.23,44.58,44.54c2.32,2.32,2.33,3.41-.08,5.66Q102.92,155,71.35,152.59A62.3,62.3,0,0,1,55.07,149.13Z"/><path class="cls-1" d="M86.86,41.11V8.73c0-2.95.91-3.84,3.83-3.72,26.52,1.14,46.59,13.13,60,36,6,10.25,8.67,21.51,8.85,33.36,0,2.21-1,3.23-3.2,3.23q-33.09,0-66.19,0c-2.35,0-3.26-1-3.27-3.5Z"/><path class="cls-1" d="M132.17,84.32h32.56c3,0,3.83.76,3.75,3.73a69.45,69.45,0,0,1-19.95,47.81c-1.69,1.76-3,1.77-4.75,0L97.17,89.31c-1-1-1.61-2-1-3.41s1.8-1.6,3.17-1.6Q115.74,84.35,132.17,84.32Z"/><path class="cls-1" d="M28.47,117.7c-5.8,0-11.6,0-17.39,0a9.19,9.19,0,0,1-2.68-.29,4.78,4.78,0,0,1-3.28-5.07A5,5,0,0,1,9.59,108a10.42,10.42,0,0,1,1.12,0H46.29a9.19,9.19,0,0,1,1.58.08,4.94,4.94,0,0,1,4.09,5,4.8,4.8,0,0,1-4.82,4.6c-4.47.09-8.94,0-13.41,0Z"/><path class="cls-1" d="M28.45,147.58c-6.17,0-12.34,0-18.51,0a4.79,4.79,0,0,1-1.57-9.34,6.6,6.6,0,0,1,2-.28H46.62c3.16,0,5.39,2.07,5.34,4.89s-2.25,4.74-5.32,4.75Z"/><path class="cls-1" d="M28.53,132.61c-6.22,0-12.44,0-18.66,0a4.71,4.71,0,0,1-4.63-3.68,4.62,4.62,0,0,1,2.08-5.1,6,6,0,0,1,2.84-.81q18.36-.07,36.7,0a4.91,4.91,0,0,1,5.1,4.82,4.84,4.84,0,0,1-5.08,4.81c-6.12,0-12.23,0-18.35,0Z"/><path class="cls-1" d="M51.85,78.17c-.67-13.26-11.55-23-25-22.39C14.34,56.33,4.46,67.51,5,80.44c.54,12.46,11.7,22.71,24.06,22.12C42.37,101.93,52.51,91.07,51.85,78.17ZM38.83,87a6.91,6.91,0,0,1-1.6,2.21,8.52,8.52,0,0,1-2.48,1.59,13.1,13.1,0,0,1-3.2.93V94.2a1,1,0,0,1-1,1H25.94a1,1,0,0,1-.68-.28A.93.93,0,0,1,25,94.2V91.57a12.33,12.33,0,0,1-3.08-1.12,10.38,10.38,0,0,1-2.34-1.65,6.81,6.81,0,0,1-1.51-2,5.16,5.16,0,0,1-.57-2.18.76.76,0,0,1,.23-.55.71.71,0,0,1,.52-.23h4.65a2.06,2.06,0,0,1,.78.12,2.3,2.3,0,0,1,.57.37c.09.1.24.25.43.47a4.32,4.32,0,0,0,.76.65,4.7,4.7,0,0,0,1.21.59,5.44,5.44,0,0,0,1.79.25,10.42,10.42,0,0,0,3.15-.41,1.52,1.52,0,0,0,1.26-1.47,1.09,1.09,0,0,0-.46-.89A4.62,4.62,0,0,0,31,82.85a21.2,21.2,0,0,0-2.36-.59c-1-.19-2.09-.42-3.39-.71a9.89,9.89,0,0,1-5.35-2.61,6.9,6.9,0,0,1-1.69-4.88,6.56,6.56,0,0,1,.46-2.4A6.91,6.91,0,0,1,20,69.54a8.54,8.54,0,0,1,2.13-1.66A11.28,11.28,0,0,1,25,66.77V64.14a.91.91,0,0,1,.28-.67.93.93,0,0,1,.68-.28h4.65a.89.89,0,0,1,.67.28.92.92,0,0,1,.29.67v2.67a11.21,11.21,0,0,1,2.89,1.12,10.44,10.44,0,0,1,2.23,1.63,8.07,8.07,0,0,1,1.45,1.9,4.37,4.37,0,0,1,.57,1.92.75.75,0,0,1-.23.55.71.71,0,0,1-.52.23H33.29a1.82,1.82,0,0,1-.8-.14,2.72,2.72,0,0,1-.62-.42c-.07-.08-.19-.19-.34-.36a3,3,0,0,0-.66-.52,4.81,4.81,0,0,0-1.06-.46,5.45,5.45,0,0,0-1.56-.19,9,9,0,0,0-1.3.09,4.65,4.65,0,0,0-1.1.28,2,2,0,0,0-.78.55,1.38,1.38,0,0,0,0,1.78,3.26,3.26,0,0,0,1.14.65,14.28,14.28,0,0,0,2.11.59c.88.19,2,.42,3.27.68a18.54,18.54,0,0,1,3.41,1,8.1,8.1,0,0,1,2.43,1.51,5.64,5.64,0,0,1,1.46,2.13,7.94,7.94,0,0,1,.48,2.9A6.48,6.48,0,0,1,38.83,87Z"/><path class="cls-2" d="M55.07,149.13c3.16-5.44,2.89-8.78-1-13.87,4.28-5.21,4.29-9.5,0-15,3.2-3.47,4.23-7.46,2.13-11.82s-5.8-6-11-5.67c6.78-5.29,10.79-11.7,11.82-19.76a28.38,28.38,0,0,0-6-21.67c-6.68-8.62-21.53-15.34-37.39-7,1.48-2.73,2.8-5.55,4.47-8.15q17.49-27.45,49.67-32.6a85,85,0,0,1,8.89-.7c2.78-.13,3.63.77,3.63,3.55q0,31.67,0,63.34a4.22,4.22,0,0,0,1.37,3.34q22.32,22.23,44.58,44.54c2.32,2.32,2.33,3.41-.08,5.66Q102.92,155,71.35,152.59A62.3,62.3,0,0,1,55.07,149.13Z"/><path class="cls-2" d="M86.86,41.11V8.73c0-2.95.91-3.84,3.83-3.72,26.52,1.14,46.59,13.13,60,36,6,10.25,8.67,21.51,8.85,33.36,0,2.21-1,3.23-3.2,3.23q-33.09,0-66.19,0c-2.35,0-3.26-1-3.27-3.5Z"/><path class="cls-2" d="M132.17,84.32h32.56c3,0,3.83.76,3.75,3.73a69.45,69.45,0,0,1-19.95,47.81c-1.69,1.76-3,1.77-4.75,0L97.17,89.31c-1-1-1.61-2-1-3.41s1.8-1.6,3.17-1.6Q115.74,84.35,132.17,84.32Z"/><path class="cls-2" d="M28.47,117.7c-5.8,0-11.6,0-17.39,0a9.19,9.19,0,0,1-2.68-.29,4.78,4.78,0,0,1-3.28-5.07A5,5,0,0,1,9.59,108a10.42,10.42,0,0,1,1.12,0H46.29a9.19,9.19,0,0,1,1.58.08,4.94,4.94,0,0,1,4.09,5,4.8,4.8,0,0,1-4.82,4.6c-4.47.09-8.94,0-13.41,0Z"/><path class="cls-2" d="M28.45,147.58c-6.17,0-12.34,0-18.51,0a4.79,4.79,0,0,1-1.57-9.34,6.6,6.6,0,0,1,2-.28H46.62c3.16,0,5.39,2.07,5.34,4.89s-2.25,4.74-5.32,4.75Z"/><path class="cls-2" d="M28.53,132.61c-6.22,0-12.44,0-18.66,0a4.71,4.71,0,0,1-4.63-3.68,4.62,4.62,0,0,1,2.08-5.1,6,6,0,0,1,2.84-.81q18.36-.07,36.7,0a4.91,4.91,0,0,1,5.1,4.82,4.84,4.84,0,0,1-5.08,4.81c-6.12,0-12.23,0-18.35,0Z"/><path class="cls-2" d="M51.85,78.17c-.67-13.26-11.55-23-25-22.39C14.34,56.33,4.46,67.51,5,80.44c.54,12.46,11.7,22.71,24.06,22.12C42.37,101.93,52.51,91.07,51.85,78.17ZM38.83,87a6.91,6.91,0,0,1-1.6,2.21,8.52,8.52,0,0,1-2.48,1.59,13.1,13.1,0,0,1-3.2.93V94.2a1,1,0,0,1-1,1H25.94a1,1,0,0,1-.68-.28A.93.93,0,0,1,25,94.2V91.57a12.33,12.33,0,0,1-3.08-1.12,10.38,10.38,0,0,1-2.34-1.65,6.81,6.81,0,0,1-1.51-2,5.16,5.16,0,0,1-.57-2.18.76.76,0,0,1,.23-.55.71.71,0,0,1,.52-.23h4.65a2.06,2.06,0,0,1,.78.12,2.3,2.3,0,0,1,.57.37c.09.1.24.25.43.47a4.32,4.32,0,0,0,.76.65,4.7,4.7,0,0,0,1.21.59,5.44,5.44,0,0,0,1.79.25,10.42,10.42,0,0,0,3.15-.41,1.52,1.52,0,0,0,1.26-1.47,1.09,1.09,0,0,0-.46-.89A4.62,4.62,0,0,0,31,82.85a21.2,21.2,0,0,0-2.36-.59c-1-.19-2.09-.42-3.39-.71a9.89,9.89,0,0,1-5.35-2.61,6.9,6.9,0,0,1-1.69-4.88,6.56,6.56,0,0,1,.46-2.4A6.91,6.91,0,0,1,20,69.54a8.54,8.54,0,0,1,2.13-1.66A11.28,11.28,0,0,1,25,66.77V64.14a.91.91,0,0,1,.28-.67.93.93,0,0,1,.68-.28h4.65a.89.89,0,0,1,.67.28.92.92,0,0,1,.29.67v2.67a11.21,11.21,0,0,1,2.89,1.12,10.44,10.44,0,0,1,2.23,1.63,8.07,8.07,0,0,1,1.45,1.9,4.37,4.37,0,0,1,.57,1.92.75.75,0,0,1-.23.55.71.71,0,0,1-.52.23H33.29a1.82,1.82,0,0,1-.8-.14,2.72,2.72,0,0,1-.62-.42c-.07-.08-.19-.19-.34-.36a3,3,0,0,0-.66-.52,4.81,4.81,0,0,0-1.06-.46,5.45,5.45,0,0,0-1.56-.19,9,9,0,0,0-1.3.09,4.65,4.65,0,0,0-1.1.28,2,2,0,0,0-.78.55,1.38,1.38,0,0,0,0,1.78,3.26,3.26,0,0,0,1.14.65,14.28,14.28,0,0,0,2.11.59c.88.19,2,.42,3.27.68a18.54,18.54,0,0,1,3.41,1,8.1,8.1,0,0,1,2.43,1.51,5.64,5.64,0,0,1,1.46,2.13,7.94,7.94,0,0,1,.48,2.9A6.48,6.48,0,0,1,38.83,87Z"/></g></g></svg>