<svg xmlns="http://www.w3.org/2000/svg" viewBox="0 0 780 314.8"><defs><style>.cls-1{fill:#fff;}.cls-2{fill:#67c6dd;}</style></defs><g id="Capa_2" data-name="Capa 2"><g id="Capa_1-2" data-name="Capa 1"><path class="cls-1" d="M98.4,152q4.59,0,7,2.52a14.79,14.79,0,0,1,3.33,5.05l50,144.5a10.52,10.52,0,0,1,.92,3.44,5.09,5.09,0,0,1-5,5.05h-28.9q-4.59,0-6.53-2a8.34,8.34,0,0,1-2.41-3.78l-6.43-19h-61l-6.42,19a8.42,8.42,0,0,1-2.41,3.78q-1.95,2-6.54,2H5A4.86,4.86,0,0,1,1.49,311,4.86,4.86,0,0,1,0,307.46,10.26,10.26,0,0,1,.92,304l50-144.5a14.9,14.9,0,0,1,3.32-5.05q2.41-2.52,7-2.52ZM61.24,252.18H98.4L79.82,197.13Z"/><path class="cls-1" d="M172.48,199.43a6.28,6.28,0,0,1,6.2-6.2h28.9a6.27,6.27,0,0,1,6.19,6.2v58q0,9.85,4.36,15.82t14.45,6q10.09,0,14.34-6t4.24-15.82v-58a6.27,6.27,0,0,1,6.19-6.2h28.9a6.28,6.28,0,0,1,6.2,6.2V306.31a6.28,6.28,0,0,1-6.2,6.2h-26.6a6.28,6.28,0,0,1-6.2-6.2V301A33.62,33.62,0,0,1,249,306a28.84,28.84,0,0,1-6.54,4.36,43,43,0,0,1-9.06,3.21,52.27,52.27,0,0,1-12.27,1.26q-22.25,0-35.44-12.62T172.48,262.5Z"/><path class="cls-1" d="M402.31,193.23a6.27,6.27,0,0,1,6.19,6.2v23.16a6.25,6.25,0,0,1-6.19,6.19H381.44q-21.1,0-21.11,21.11v56.42a6.27,6.27,0,0,1-6.19,6.2h-28.9a6.28,6.28,0,0,1-6.19-6.2V199.43a6.28,6.28,0,0,1,6.19-6.2h26.61a6.27,6.27,0,0,1,6.19,6.2v5.27a42.85,42.85,0,0,1,12.73-8.26,44.79,44.79,0,0,1,17.78-3.21Z"/><path class="cls-1" d="M542.91,244.15q.24,3.45.24,8.83t-.24,8.83a52.7,52.7,0,0,1-5,20.65,53.47,53.47,0,0,1-12.62,16.86,58.48,58.48,0,0,1-19.38,11.35,79.83,79.83,0,0,1-50.69,0,58.48,58.48,0,0,1-19.38-11.35,53.29,53.29,0,0,1-12.61-16.86,52.36,52.36,0,0,1-5.05-20.65c-.16-2.29-.23-5.23-.23-8.83s.07-6.53.23-8.83A49.93,49.93,0,0,1,423,223.51a52.66,52.66,0,0,1,12.74-16.86,61.24,61.24,0,0,1,19.49-11.47,77.87,77.87,0,0,1,50.69,0,61.4,61.4,0,0,1,19.5,11.47A51.31,51.31,0,0,1,538,223.51,53.74,53.74,0,0,1,542.91,244.15Zm-83.48,16.52q.69,8.71,6.3,13.64t14.8,4.94q9.17,0,14.79-4.94t6.31-13.64a66.36,66.36,0,0,0,0-15.6q-.69-8.72-6.31-13.65t-14.79-4.93q-9.18,0-14.8,4.93t-6.3,13.65a66.36,66.36,0,0,0,0,15.6Z"/><path class="cls-1" d="M647.73,193.23a6.28,6.28,0,0,1,6.2,6.2v23.16a6.27,6.27,0,0,1-6.2,6.19H626.86q-21.11,0-21.1,21.11v56.42a6.27,6.27,0,0,1-6.19,6.2h-28.9a6.28,6.28,0,0,1-6.2-6.2V199.43a6.28,6.28,0,0,1,6.2-6.2h26.6a6.28,6.28,0,0,1,6.2,6.2v5.27a42.8,42.8,0,0,1,12.72-8.26A44.79,44.79,0,0,1,634,193.23Z"/><path class="cls-1" d="M660.12,278.56a31.42,31.42,0,0,1,11.59-25q11.58-9.87,37.73-14.45l26.84-4.59a13.61,13.61,0,0,0-3-9.06q-3-3.56-10.32-3.56a18,18,0,0,0-8.14,1.49,25.71,25.71,0,0,0-4.25,2.64,9.56,9.56,0,0,1-3.89,2.3,18,18,0,0,1-4.36.45H673.2a5.37,5.37,0,0,1-3.79-1.37,4.17,4.17,0,0,1-1.26-3.67q.47-5.28,4.59-11a43.35,43.35,0,0,1,11.35-10.55,69,69,0,0,1,17.21-8A70.37,70.37,0,0,1,723,190.94q14,0,24.31,3.44a47.81,47.81,0,0,1,17.09,9.52,37.09,37.09,0,0,1,10,14.45,51.19,51.19,0,0,1,3.21,18.46v69.5a6.27,6.27,0,0,1-6.19,6.2h-28.9a6.27,6.27,0,0,1-6.19-6.2v-6.42a39.93,39.93,0,0,1-13.65,10.9q-8.14,4-21.45,4a51.92,51.92,0,0,1-17.54-2.75,36.71,36.71,0,0,1-12.85-7.57A32.6,32.6,0,0,1,662.87,293,37.49,37.49,0,0,1,660.12,278.56Zm52.3,5.27a25.29,25.29,0,0,0,9.4-1.72,23.66,23.66,0,0,0,7.57-4.7,21.86,21.86,0,0,0,5.05-7,20.43,20.43,0,0,0,1.84-8.6L715.17,265a24.43,24.43,0,0,0-10,3.9,8.43,8.43,0,0,0-3.79,7.11c0,2.91,1,4.94,2.87,6.08S708.9,283.83,712.42,283.83Z"/><path class="cls-2" d="M666.5,135.94c-15.92,0-31.84,0-47.75,0a3.93,3.93,0,0,1-4-2.42,52.39,52.39,0,0,1-6-20.52c-1.78-21.8,6.41-39.1,23.53-52.34A53.88,53.88,0,0,1,657.4,50.09a55.89,55.89,0,0,1,27.78,2.33c15.13,5.46,26.35,15.46,33.27,30.06,6.68,14.1,7.2,28.65,2.76,43.46a58.08,58.08,0,0,1-3.52,8.63c-.59,1.24-1.56,1.38-2.71,1.37H666.5Z"/><path class="cls-2" d="M775.68,144.67a11.43,11.43,0,0,0-5.46-.92c-24.1,0-19,0-15.71,0H589.94c-1.1,0-2.21,0-3.31,0a7.48,7.48,0,0,0-7,7.17c-.18,5,3.41,8.13,9.51,8.13H769.46a19.32,19.32,0,0,0,4.8-.54,7.82,7.82,0,0,0,5.7-6.49A7.16,7.16,0,0,0,775.68,144.67Z"/><path class="cls-2" d="M671.92,21c0,5.18,0,10.37,0,15.55a5.63,5.63,0,0,1-3,5.12c-3.67,2.13-8.22-.63-8.46-5.14-.12-2.43,0-4.87,0-7.31,0-7.75,0-15.5,0-23.24,0-3.75,2.37-6,6.08-6a5.11,5.11,0,0,1,5.36,5.27C672,10.52,671.92,15.76,671.92,21Z"/><path class="cls-2" d="M754.48,102.89c5.43,0,10.86,0,16.29,0,3.23,0,5.23,1.75,5.44,4.66a5.21,5.21,0,0,1-4.7,5.88,14.47,14.47,0,0,1-2.18.19q-15.09,0-30.18,0c-2.28,0-4.34-.44-5.78-2.48a4.76,4.76,0,0,1-.58-5.32,5,5,0,0,1,4.68-3C743.14,102.92,748.81,102.9,754.48,102.89Z"/><path class="cls-2" d="M579.82,102.9H595a5.34,5.34,0,0,1,3.76,1.12c1.5,1.33,2.51,2.91,2,5a5.51,5.51,0,0,1-4.12,4.24,13.63,13.63,0,0,1-3.25.38c-9.26,0-18.53,0-27.79,0-2.6,0-4.77-.69-6.09-3.19a5.06,5.06,0,0,1,4.27-7.52c5.36-.1,10.72,0,16.09,0Z"/><path class="cls-2" d="M711.3,56.8a6.12,6.12,0,0,1,1.92-4.12c5.12-4.87,10.2-9.78,15.34-14.63a5.13,5.13,0,0,1,7.13.14c2.5,2.5,2.61,5.75.12,8.28-4.87,5-9.75,9.88-14.74,14.71a5.51,5.51,0,0,1-6.72,1.21C712.14,61.29,711.23,59.88,711.3,56.8Z"/><path class="cls-2" d="M621.3,57.39a5.5,5.5,0,0,1-3.58,5.25A6.52,6.52,0,0,1,611.17,61L597,46.23c-3.21-3.35-2-7.9,2.5-9.27a4,4,0,0,1,4.24,1c5.2,4.95,10.37,9.94,15.59,14.88A7,7,0,0,1,621.3,57.39Z"/><path class="cls-2" d="M552.25,151.42c0-3.86,3.13-19.6,7-19.6s7,15.74,7,19.6a7,7,0,0,1-14,0Z"/><circle class="cls-2" cx="529.81" cy="151.42" r="6.99"/><path class="cls-2" d="M493.39,151.42c0-3.86,3.13-19.6,7-19.6s7,15.74,7,19.6a7,7,0,1,1-14,0Z"/><circle class="cls-2" cx="470.94" cy="151.42" r="6.99"/><path class="cls-2" d="M434.52,151.42c0-3.86,3.13-19.6,7-19.6s7,15.74,7,19.6a7,7,0,0,1-14,0Z"/><circle class="cls-2" cx="412.07" cy="151.42" r="6.99"/><path class="cls-2" d="M375.65,151.42c0-3.86,3.13-19.6,7-19.6s7,15.74,7,19.6a7,7,0,0,1-14,0Z"/><circle class="cls-2" cx="353.2" cy="151.42" r="6.99"/><path class="cls-2" d="M316.78,151.42c0-3.86,3.13-19.6,7-19.6s7,15.74,7,19.6a7,7,0,0,1-14,0Z"/><circle class="cls-2" cx="294.34" cy="151.42" r="6.99"/><path class="cls-2" d="M257.91,151.42c0-3.86,3.13-19.6,7-19.6s7,15.74,7,19.6a7,7,0,0,1-14,0Z"/><circle class="cls-2" cx="235.47" cy="151.42" r="6.99"/><path class="cls-2" d="M199,151.42c0-3.86,3.13-19.6,7-19.6s7,15.74,7,19.6a7,7,0,0,1-14,0Z"/><circle class="cls-2" cx="176.6" cy="151.42" r="6.99"/></g></g></svg>