<svg xmlns="http://www.w3.org/2000/svg" viewBox="0 0 803.41 324.25"><defs><style>.cls-1{fill:#5e3893;}.cls-2{fill:#67c6dd;}</style></defs><g id="Capa_2" data-name="Capa 2"><g id="Capa_1-2" data-name="Capa 1"><path class="cls-1" d="M101.35,156.51q4.73,0,7.21,2.6a15.34,15.34,0,0,1,3.42,5.2l51.51,148.84a10.7,10.7,0,0,1,.94,3.54,5.24,5.24,0,0,1-5.2,5.2H129.47q-4.73,0-6.74-2a8.67,8.67,0,0,1-2.48-3.9l-6.61-19.61H50.79L44.18,316a8.76,8.76,0,0,1-2.48,3.9c-1.34,1.34-3.59,2-6.73,2H5.2a5,5,0,0,1-3.66-1.54A5,5,0,0,1,0,316.69a10.52,10.52,0,0,1,1-3.54l51.5-148.84a15.34,15.34,0,0,1,3.42-5.2q2.49-2.6,7.21-2.6ZM63.08,259.76h38.27L82.22,203.05Z"/><path class="cls-1" d="M177.66,205.42A6.45,6.45,0,0,1,184,199h29.77a6.45,6.45,0,0,1,6.38,6.38v59.77q0,10.15,4.49,16.3t14.88,6.14q10.4,0,14.77-6.14t4.37-16.3V205.42a6.45,6.45,0,0,1,6.38-6.38h29.76a6.45,6.45,0,0,1,6.38,6.38V315.51a6.45,6.45,0,0,1-6.38,6.38h-27.4a6.45,6.45,0,0,1-6.38-6.38v-5.43a34.57,34.57,0,0,1-4.61,5.08,29.52,29.52,0,0,1-6.73,4.49,44.19,44.19,0,0,1-9.33,3.3,53.64,53.64,0,0,1-12.64,1.3q-22.92,0-36.5-13t-13.59-40.87Z"/><path class="cls-1" d="M414.39,199a6.45,6.45,0,0,1,6.38,6.38v23.86a6.45,6.45,0,0,1-6.38,6.38h-21.5q-21.75,0-21.74,21.73v58.12a6.45,6.45,0,0,1-6.38,6.38H335a6.45,6.45,0,0,1-6.38-6.38V205.42A6.45,6.45,0,0,1,335,199h27.4a6.45,6.45,0,0,1,6.38,6.38v5.43a44,44,0,0,1,13.11-8.51,46.18,46.18,0,0,1,18.31-3.3Z"/><path class="cls-1" d="M559.21,251.49q.24,3.54.24,9.09c0,3.7-.08,6.74-.24,9.1a53.89,53.89,0,0,1-5.2,21.26,55,55,0,0,1-13,17.37,60.33,60.33,0,0,1-20,11.69,82.3,82.3,0,0,1-52.21,0,60.27,60.27,0,0,1-20-11.69,55,55,0,0,1-13-17.37,53.89,53.89,0,0,1-5.2-21.26c-.16-2.36-.24-5.4-.24-9.1s.08-6.73.24-9.09a51.3,51.3,0,0,1,5-21.27,54.18,54.18,0,0,1,13.11-17.36A63.4,63.4,0,0,1,468.85,201a80.16,80.16,0,0,1,52.21,0,63.46,63.46,0,0,1,20.08,11.82,52.69,52.69,0,0,1,13,17.36A55.45,55.45,0,0,1,559.21,251.49Zm-86,17q.7,9,6.49,14.05T495,287.63q9.45,0,15.24-5.08t6.5-14.05a68.92,68.92,0,0,0,0-16.07q-.72-9-6.5-14.06T495,233.29q-9.45,0-15.24,5.08t-6.49,14.06a67.49,67.49,0,0,0,0,16.07Z"/><path class="cls-1" d="M667.18,199a6.45,6.45,0,0,1,6.38,6.38v23.86a6.45,6.45,0,0,1-6.38,6.38h-21.5q-21.73,0-21.73,21.73v58.12a6.45,6.45,0,0,1-6.38,6.38H587.8a6.45,6.45,0,0,1-6.38-6.38V205.42A6.45,6.45,0,0,1,587.8,199h27.4a6.45,6.45,0,0,1,6.38,6.38v5.43a43.9,43.9,0,0,1,13.12-8.51A46.13,46.13,0,0,1,653,199Z"/><path class="cls-1" d="M679.94,286.92a32.39,32.39,0,0,1,11.93-25.75Q703.8,251,730.73,246.29l27.65-4.73a14,14,0,0,0-3.08-9.33q-3.06-3.66-10.63-3.66c-3.62,0-6.42.51-8.38,1.53a25.05,25.05,0,0,0-4.37,2.72,9.86,9.86,0,0,1-4,2.36,18.44,18.44,0,0,1-4.49.48h-30a5.54,5.54,0,0,1-3.9-1.42,4.26,4.26,0,0,1-1.3-3.78q.46-5.43,4.72-11.34a44.87,44.87,0,0,1,11.7-10.87A71.14,71.14,0,0,1,722.35,200a72.62,72.62,0,0,1,22.32-3.31q14.42,0,25.05,3.55a49.36,49.36,0,0,1,17.6,9.8,38.15,38.15,0,0,1,10.27,14.89,52.61,52.61,0,0,1,3.31,19v71.58a6.45,6.45,0,0,1-6.38,6.38H764.75a6.45,6.45,0,0,1-6.37-6.38V308.9a41,41,0,0,1-14.06,11.22q-8.39,4.13-22.09,4.13a53.39,53.39,0,0,1-18.07-2.83,37.66,37.66,0,0,1-13.23-7.8,33.51,33.51,0,0,1-8.16-11.81A38.56,38.56,0,0,1,679.94,286.92Zm53.87,5.44a26.14,26.14,0,0,0,9.68-1.77,24.83,24.83,0,0,0,7.8-4.85,22.7,22.7,0,0,0,5.2-7.2,21.22,21.22,0,0,0,1.89-8.86L736.64,273a25,25,0,0,0-10.28,4,8.67,8.67,0,0,0-3.89,7.33c0,3,1,5.07,2.95,6.26S730.18,292.36,733.81,292.36Z"/><path class="cls-2" d="M686.5,140c-16.4,0-32.79,0-49.19,0a4,4,0,0,1-4.1-2.49A53.88,53.88,0,0,1,627,116.43c-1.83-22.45,6.61-40.27,24.24-53.9a55.41,55.41,0,0,1,25.9-10.94A57.72,57.72,0,0,1,705.74,54c15.58,5.63,27.14,15.92,34.27,31,6.88,14.53,7.41,29.52,2.84,44.77a60,60,0,0,1-3.62,8.89c-.62,1.27-1.61,1.42-2.79,1.41-5.09,0-10.18,0-15.27,0Z"/><path class="cls-2" d="M799,149a11.83,11.83,0,0,0-5.62-.94H607.64c-1.14,0-2.28,0-3.41,0a7.7,7.7,0,0,0-7.17,7.38c-.19,5.18,3.51,8.37,9.8,8.37l185.69,0a19.92,19.92,0,0,0,4.94-.56,8,8,0,0,0,5.87-6.68C803.69,153.27,802.1,150.62,799,149Z"/><path class="cls-2" d="M692.08,21.64c0,5.34,0,10.68,0,16A5.79,5.79,0,0,1,689,42.93c-3.78,2.19-8.46-.65-8.71-5.29-.13-2.5,0-5,0-7.54,0-8,0-15.95,0-23.93,0-3.86,2.44-6.22,6.26-6.17a5.26,5.26,0,0,1,5.52,5.43C692.11,10.83,692.08,16.23,692.08,21.64Z"/><path class="cls-2" d="M777.12,106c5.59,0,11.18,0,16.77,0,3.34,0,5.4,1.8,5.61,4.8a5.35,5.35,0,0,1-4.84,6,14.13,14.13,0,0,1-2.24.2q-15.55,0-31.1,0c-2.34,0-4.46-.45-6-2.56a4.9,4.9,0,0,1-.59-5.47,5.12,5.12,0,0,1,4.82-3C765.44,106,771.28,106,777.12,106Z"/><path class="cls-2" d="M597.21,106h15.63a5.57,5.57,0,0,1,3.88,1.15c1.54,1.37,2.58,3,2,5.14a5.66,5.66,0,0,1-4.24,4.36,14.49,14.49,0,0,1-3.35.41c-9.54,0-19.08,0-28.62,0-2.68,0-4.92-.71-6.28-3.3a5.21,5.21,0,0,1,4.4-7.74c5.52-.1,11.05,0,16.57,0Z"/><path class="cls-2" d="M732.65,58.5a6.3,6.3,0,0,1,2-4.24c5.28-5,10.5-10.07,15.8-15.06a5.29,5.29,0,0,1,7.35.13c2.57,2.58,2.68,5.93.12,8.54-5,5.09-10,10.18-15.19,15.14-1.92,1.86-4.26,2.58-6.92,1.25C733.5,63.13,732.57,61.68,732.65,58.5Z"/><path class="cls-2" d="M640,59.11a5.68,5.68,0,0,1-3.7,5.41,6.73,6.73,0,0,1-6.74-1.69q-7.29-7.62-14.61-15.21c-3.31-3.45-2-8.14,2.58-9.55a4.17,4.17,0,0,1,4.36,1c5.36,5.11,10.69,10.25,16.06,15.34A7.29,7.29,0,0,1,640,59.11Z"/><path class="cls-2" d="M568.82,156c0-4,3.23-20.19,7.2-20.19s7.2,16.21,7.2,20.19a7.2,7.2,0,0,1-14.4,0Z"/><circle class="cls-2" cx="545.7" cy="155.97" r="7.2"/><path class="cls-2" d="M508.19,156c0-4,3.22-20.19,7.19-20.19s7.2,16.21,7.2,20.19a7.2,7.2,0,1,1-14.39,0Z"/><circle class="cls-2" cx="485.07" cy="155.97" r="7.2"/><path class="cls-2" d="M447.55,156c0-4,3.22-20.19,7.2-20.19S462,152,462,156a7.2,7.2,0,0,1-14.4,0Z"/><circle class="cls-2" cx="424.43" cy="155.97" r="7.2"/><path class="cls-2" d="M386.91,156c0-4,3.23-20.19,7.2-20.19s7.2,16.21,7.2,20.19a7.2,7.2,0,0,1-14.4,0Z"/><circle class="cls-2" cx="363.8" cy="155.97" r="7.2"/><path class="cls-2" d="M326.28,156c0-4,3.22-20.19,7.2-20.19s7.2,16.21,7.2,20.19a7.2,7.2,0,1,1-14.4,0Z"/><circle class="cls-2" cx="303.16" cy="155.97" r="7.2"/><path class="cls-2" d="M265.64,156c0-4,3.23-20.19,7.2-20.19S280,152,280,156a7.2,7.2,0,1,1-14.4,0Z"/><circle class="cls-2" cx="242.52" cy="155.97" r="7.2"/><path class="cls-2" d="M205,156c0-4,3.22-20.19,7.2-20.19S219.4,152,219.4,156A7.2,7.2,0,1,1,205,156Z"/><circle class="cls-2" cx="181.89" cy="155.97" r="7.2"/></g></g></svg>